<?xml version="1.0" encoding="UTF-8"?>
<svg version="1.1" xmlns="http://www.w3.org/2000/svg" width="431" height="387">
<path d="M0 0 C142.23 0 284.46 0 431 0 C431 127.71 431 255.42 431 387 C288.77 387 146.54 387 0 387 C0 259.29 0 131.58 0 0 Z " fill="#343434" transform="translate(0,0)"/>
<path d="M0 0 C0.67142029 0.00343414 1.34284058 0.00686829 2.03460693 0.01040649 C50.39345741 0.29821428 97.94243075 14.61347026 133.90625 48.18359375 C135.88805793 50.02932684 137.92103216 51.76610674 140 53.5 C174.3024684 83.59230629 196.28476073 131.62714099 199.96826172 176.72412109 C201.66828723 204.12048242 200.04201541 232.77696404 189.125 258.25 C159.755 258.25 130.385 258.25 100.125 258.25 C93.89975379 246.4220322 87.73198696 234.60130405 81.78540039 222.63671875 C81.01067609 221.08205444 80.23574675 219.5274923 79.46063232 217.97302246 C77.81561736 214.67318949 76.17180022 211.37276385 74.52891731 208.0718689 C71.93010072 202.85086295 69.32716748 197.63191602 66.72349548 192.41333008 C59.32872175 177.59058809 51.93755946 162.76605238 44.55444336 147.9375 C40.45878414 139.71169688 36.35886505 131.48803194 32.25416559 123.26673603 C29.66438837 118.07908953 27.07988534 112.88886058 24.49923432 107.69666862 C22.89901564 104.480256 21.29379106 101.26636213 19.68710327 98.05317688 C18.94285106 96.56224671 18.20066673 95.07028224 17.46069145 93.57722473 C16.45184581 91.54240906 15.43569491 89.51140996 14.4176178 87.48120117 C13.5673884 85.77464607 13.5673884 85.77464607 12.69998264 84.03361511 C10.77861152 80.63779503 9.53617709 78.65849863 5.75 77.5625 C2.20503659 78.4909428 1.47616701 80.43184705 -0.3359375 83.46557617 C-3.82911562 89.78532497 -6.98869397 96.2779154 -10.1875 102.75 C-10.9156365 104.21633416 -11.6441499 105.68248122 -12.37304688 107.1484375 C-13.82293789 110.06551154 -15.27082858 112.98356532 -16.71728516 115.90234375 C-19.77661943 122.07195211 -22.85973942 128.22965739 -25.94273376 134.38746643 C-27.29252223 137.08414923 -28.6409254 139.78152417 -29.98942566 142.47885132 C-30.95206519 144.40413037 -31.91551563 146.32900296 -32.87890625 148.25390625 C-34.20470703 150.90486077 -35.52452555 153.55867356 -36.83984375 156.21484375 C-40.23264631 163.05347457 -43.70336515 169.83532208 -47.3125 176.5625 C-50.9482756 183.35355912 -54.29981746 190.25041768 -57.56787109 197.22485352 C-62.37625778 207.48225582 -67.41811264 217.6006605 -72.8125 227.5625 C-77.1889903 235.64662282 -81.07715682 243.95474547 -84.94873047 252.28979492 C-85.89432605 254.29089848 -86.88519533 256.27039066 -87.875 258.25 C-117.575 258.25 -147.275 258.25 -177.875 258.25 C-195.24028798 211.9425654 -192.0880301 159.25059117 -171.99316406 114.27636719 C-164.83610624 98.74290095 -155.69360134 84.47273498 -144.875 71.25 C-144.40835938 70.67507812 -143.94171875 70.10015625 -143.4609375 69.5078125 C-116.16593032 36.08237589 -78.09217357 14.18173494 -36.375 4.125 C-35.39781006 3.88692627 -35.39781006 3.88692627 -34.40087891 3.64404297 C-22.93600749 0.97498722 -11.76580556 -0.08665487 0 0 Z " fill="#7F7F7F" transform="translate(206.875,-0.24999999999999997)"/>
<path d="M0 0 C63.36 0 126.72 0 192 0 C188.66318511 2.22454326 186.99495455 2.38699065 183.0625 2.8125 C160.75897192 5.79548215 139.75300672 13.37814916 120 24 C119.40912598 24.31018066 118.81825195 24.62036133 118.20947266 24.93994141 C104.30042019 32.26845024 92.0230923 41.72305129 80.6484375 52.52734375 C78.80466338 54.24874348 76.89398163 55.90005066 74.9375 57.4921875 C72.12474884 59.89349899 69.92102909 62.29825893 67.625 65.1875 C66.8515625 66.15816406 66.078125 67.12882812 65.28125 68.12890625 C64.5284375 69.07636719 63.775625 70.02382812 63 71 C62.3503125 71.77214844 61.700625 72.54429688 61.03125 73.33984375 C50.74603188 85.66945974 42.71032092 99.46030044 36 114 C35.55269531 114.94359375 35.10539062 115.8871875 34.64453125 116.859375 C26.84324478 134.3302172 22.62760568 153.12948712 20 172 C19.73304321 173.84670288 19.73304321 173.84670288 19.46069336 175.73071289 C18.90240741 180.26572535 18.87332605 184.74848327 18.90234375 189.3125 C18.90446617 190.59398926 18.90446617 190.59398926 18.90663147 191.90136719 C18.91218038 194.60094873 18.92472303 197.30044399 18.9375 200 C18.94252161 201.84244671 18.94708336 203.68489473 18.95117188 205.52734375 C18.96213301 210.01826186 18.97936175 214.50911636 19 219 C18.34 219 17.68 219 17 219 C17 219.66 17 220.32 17 221 C10.375 223.125 10.375 223.125 7 222 C3.82369089 224.1175394 2.87025144 225.7695657 1 229 C0.67 229 0.34 229 0 229 C0 153.43 0 77.86 0 0 Z " fill="#343434" transform="translate(0,0)"/>
<path d="M0 0 C88.11 0 176.22 0 267 0 C243.13743341 27.83966103 199.31592561 48.56186975 163 52 C158.7778563 52.17600638 154.55747262 52.21159908 150.33203125 52.23828125 C148.4869825 52.25038887 148.4869825 52.25038887 146.60466003 52.26274109 C143.99988192 52.27654728 141.39508598 52.28728486 138.7902832 52.29516602 C136.16164743 52.30662082 133.53303371 52.32696763 130.90454102 52.35668945 C115.11673279 52.53490839 100.30303243 52.09264583 85 48 C83.98574951 47.73775635 82.97149902 47.4755127 81.92651367 47.20532227 C79.65300827 46.57316607 77.42279466 45.87979887 75.1875 45.125 C74.40947021 44.86871826 73.63144043 44.61243652 72.82983398 44.34838867 C70.54615078 43.58451102 68.27201945 42.79782009 66 42 C65.35256836 41.77618652 64.70513672 41.55237305 64.03808594 41.32177734 C40.18202728 32.92890752 18.40746238 18.18224301 0 1 C0 0.67 0 0.34 0 0 Z " fill="#7E7E7E" transform="translate(79,335)"/>
<path d="M0 0 C0.8545021 0.00092179 1.70900419 0.00184359 2.58940029 0.00279331 C4.05552509 0.00073132 4.05552509 0.00073132 5.55126858 -0.00137234 C6.63235897 0.00222294 7.71344936 0.00581821 8.82730007 0.00952244 C10.52464039 0.0093034 10.52464039 0.0093034 12.25627041 0.00907993 C16.01686389 0.00977964 19.77740855 0.01757472 23.53799343 0.02539158 C26.13731261 0.02725555 28.73663215 0.02867955 31.33595181 0.0296793 C37.49122295 0.03311442 43.64647378 0.04100527 49.80173725 0.05102879 C56.80767064 0.06219089 63.81360485 0.06770062 70.81954491 0.07272422 C85.23481851 0.08318791 99.65007722 0.10078675 114.06533718 0.12304783 C114.52982265 1.10089489 114.52982265 1.10089489 115.00369167 2.09849644 C116.42869653 5.09581797 117.85637348 8.09185946 119.28408718 11.08789158 C119.77103054 12.11313938 120.2579739 13.13838718 120.75967312 14.1947031 C124.12841357 21.25750968 127.66138838 28.19631962 131.40908718 35.06445408 C136.06533718 43.66314217 136.06533718 43.66314217 136.06533718 46.12304783 C82.93533718 46.12304783 29.80533718 46.12304783 -24.93466282 46.12304783 C-19.67990202 35.02966393 -14.43762253 23.96456659 -8.93466282 12.99804783 C-8.36360813 11.85207127 -7.79255344 10.7060947 -7.20419407 9.52539158 C-6.3901511 7.89923923 -6.3901511 7.89923923 -5.55966282 6.24023533 C-5.07755344 5.27714451 -4.59544407 4.31405369 -4.09872532 3.3217783 C-2.42163549 0.15402011 -2.42163549 0.15402011 0 0 Z " fill="#7E7E7E" transform="translate(156.9346628189087,211.87695217132568)"/>
<path d="M0 0 C3.24413857 2.7051682 4.7850204 6.24268453 6.578125 9.97094727 C7.29200467 11.42684014 8.00621148 12.88257264 8.72070312 14.33816528 C9.28011597 15.48493177 9.28011597 15.48493177 9.85083008 16.65486526 C11.76414798 20.55941253 13.72001682 24.44249829 15.671875 28.32788086 C16.50061045 29.98158238 17.3291379 31.63538815 18.1574707 33.28929138 C18.58033356 34.13339506 19.00319641 34.97749874 19.43887329 35.84718132 C22.1916912 41.34317798 24.94297929 46.83994064 27.69425964 52.33670712 C30.10258477 57.14809028 32.51167763 61.95908617 34.92236328 66.76928711 C37.27399245 71.46172912 39.62370009 76.15512856 41.9720459 80.84921455 C42.86448694 82.63224644 43.75763297 84.41492564 44.65148926 86.19724846 C45.89059457 88.66826152 47.12724081 91.14048988 48.36328125 93.61303711 C48.73409317 94.35106567 49.10490509 95.08909424 49.48695374 95.8494873 C52 100.88594096 52 100.88594096 52 102 C18.34 102 -15.32 102 -50 102 C-48.03719771 96.11159312 -46.17802791 90.92152606 -43.375 85.5 C-43.02800049 84.81623291 -42.68100098 84.13246582 -42.32348633 83.42797852 C-40.19355616 79.25232583 -37.99849058 75.11350816 -35.78369141 70.98242188 C-35.42194824 70.30759766 -35.06020508 69.63277344 -34.6875 68.9375 C-34.31802246 68.24849609 -33.94854492 67.55949219 -33.56787109 66.84960938 C-29.84977484 59.84601066 -26.47812289 52.68624412 -23.09106445 45.51831055 C-19.99395548 38.99417492 -16.72656334 32.59721439 -13.29101562 26.24609375 C-9.90172122 19.93330309 -6.84484276 13.47599404 -3.82958984 6.97753906 C-3.4733252 6.21151367 -3.11706055 5.44548828 -2.75 4.65625 C-2.27820313 3.63241211 -2.27820313 3.63241211 -1.796875 2.58789062 C-1 1 -1 1 0 0 Z " fill="#7F7F7F" transform="translate(212,98)"/>
<path d="M0 0 C0.99 0 1.98 0 3 0 C4.67760333 4.24576418 6.34017443 8.49725773 8 12.75 C8.47695312 13.9565625 8.95390625 15.163125 9.4453125 16.40625 C9.89648438 17.56640625 10.34765625 18.7265625 10.8125 19.921875 C11.23144531 20.99018555 11.65039062 22.05849609 12.08203125 23.15917969 C13 26 13 26 13 30 C11.35 29.67 9.7 29.34 8 29 C7.67 27.02 7.34 25.04 7 23 C3.04 23 -0.92 23 -5 23 C-5.66 25.31 -6.32 27.62 -7 30 C-8.32 30 -9.64 30 -11 30 C-10.42102942 25.88544399 -9.49322752 22.27991125 -7.96875 18.41796875 C-7.57042969 17.40412109 -7.17210937 16.39027344 -6.76171875 15.34570312 C-6.34535156 14.30349609 -5.92898437 13.26128906 -5.5 12.1875 C-5.08363281 11.12595703 -4.66726562 10.06441406 -4.23828125 8.97070312 C-1.14342758 1.14342758 -1.14342758 1.14342758 0 0 Z " fill="#EFEFEF" transform="translate(211,282)"/>
<path d="M0 0 C0.99 0 1.98 0 3 0 C4.98 4.29 6.96 8.58 9 13 C4 16 4 16 1.8125 17.0625 C-0.17822239 17.97608662 -0.17822239 17.97608662 -2 20 C-2.83819158 18.37750059 -3.6704116 16.75191503 -4.5 15.125 C-4.9640625 14.22007812 -5.428125 13.31515625 -5.90625 12.3828125 C-7 10 -7 10 -7 8 C-3.53846154 5 -3.53846154 5 -1 5 C-0.67 3.35 -0.34 1.7 0 0 Z " fill="#3A3A3A" transform="translate(287,223)"/>
<path d="M0 0 C3.32993034 3.82941989 5.05324525 8.37522222 7 13 C5.329375 13.12375 5.329375 13.12375 3.625 13.25 C-0.03592302 13.56822859 -0.03592302 13.56822859 -1.3125 15.9375 C-1.539375 16.618125 -1.76625 17.29875 -2 18 C-2.66 18.66 -3.32 19.32 -4 20 C-5.98 15.71 -7.96 11.42 -10 7 C-8.906875 6.5875 -7.81375 6.175 -6.6875 5.75 C-3.48984058 4.39714409 -1.79346574 3.05944156 0 0 Z " fill="#3C3C3C" transform="translate(224,93)"/>
<path d="M0 0 C0 0.99 0 1.98 0 3 C-0.78375 3.268125 -1.5675 3.53625 -2.375 3.8125 C-5.28114923 4.84814432 -5.28114923 4.84814432 -7 8 C-9.625 8.1875 -9.625 8.1875 -12 8 C-12 7.34 -12 6.68 -12 6 C-12.66 6.66 -13.32 7.32 -14 8 C-13.67 8.99 -13.34 9.98 -13 11 C-15.64 10.34 -18.28 9.68 -21 9 C-20.01 8.67 -19.02 8.34 -18 8 C-17.5359375 7.01 -17.5359375 7.01 -17.0625 6 C-16 4 -16 4 -14.125 3.1875 C-12 3 -12 3 -9.9375 3.625 C-9.298125 3.74875 -8.65875 3.8725 -8 4 C-6.33333333 2.66666667 -6.33333333 2.66666667 -5 1 C-3 0 -3 0 0 0 Z " fill="#3D3D3D" transform="translate(290,0)"/>
<path d="M0 0 C0.66 0 1.32 0 2 0 C2.99 3.3 3.98 6.6 5 10 C2.36 10 -0.28 10 -3 10 C-2.01 6.7 -1.02 3.4 0 0 Z " fill="#464646" transform="translate(211,291)"/>
<path d="M0 0 C2.625 0.375 2.625 0.375 5 1 C5 2.65 5 4.3 5 6 C3.35 6.33 1.7 6.66 0 7 C-0.66 5.35 -1.32 3.7 -2 2 C-1.34 1.34 -0.68 0.68 0 0 Z " fill="#333333" transform="translate(3,230)"/>
<path d="M0 0 C0.99 0 1.98 0 3 0 C2.67 3.96 2.34 7.92 2 12 C1.34 10.68 0.68 9.36 0 8 C-0.66 7.34 -1.32 6.68 -2 6 C-1.44444444 1.44444444 -1.44444444 1.44444444 0 0 Z " fill="#757575" transform="translate(403,215)"/>
<path d="M0 0 C2.125 0.9375 2.125 0.9375 4 2 C3.67 3.65 3.34 5.3 3 7 C2.01 7.33 1.02 7.66 0 8 C-1.4606285 5.35261084 -2 4.10551666 -2 1 C-1.34 0.67 -0.68 0.34 0 0 Z " fill="#353535" transform="translate(218,101)"/>
<path d="M0 0 C5.28 0 10.56 0 16 0 C15.67 1.32 15.34 2.64 15 4 C13.35 4 11.7 4 10 4 C10 3.01 10 2.02 10 1 C6.7 1 3.4 1 0 1 C0 0.67 0 0.34 0 0 Z " fill="#6F6F6F" transform="translate(192,0)"/>
<path d="M0 0 C0.66 0.33 1.32 0.66 2 1 C2 1.99 2 2.98 2 4 C2.99 4.33 3.98 4.66 5 5 C4.67 5.99 4.34 6.98 4 8 C2.125 7.6875 2.125 7.6875 0 7 C-0.66 6.01 -1.32 5.02 -2 4 C-1.34 2.68 -0.68 1.36 0 0 Z " fill="#767676" transform="translate(167,187)"/>
<path d="M0 0 C0 0.99 0 1.98 0 3 C-0.66 3.66 -1.32 4.32 -2 5 C-2.33 5.99 -2.66 6.98 -3 8 C-3.99 8 -4.98 8 -6 8 C-6 6.35 -6 4.7 -6 3 C-4.02 2.01 -2.04 1.02 0 0 Z " fill="#343434" transform="translate(417,154)"/>
<path d="M0 0 C0.33 0 0.66 0 1 0 C1.33 3.3 1.66 6.6 2 10 C1.01 9.67 0.02 9.34 -1 9 C-1.80967438 6.08517222 -2.21845993 4.53886783 -1.0625 1.6875 C-0.711875 1.130625 -0.36125 0.57375 0 0 Z " fill="#747474" transform="translate(403,157)"/>
<path d="M0 0 C0.66 0.66 1.32 1.32 2 2 C1.625 4.625 1.625 4.625 1 7 C-0.32 7.33 -1.64 7.66 -3 8 C-1.125 2.25 -1.125 2.25 0 0 Z " fill="#767676" transform="translate(206,109)"/>
<path d="M0 0 C-0.66 1.98 -1.32 3.96 -2 6 C-2.99 6 -3.98 6 -5 6 C-4.625 3.5625 -4.625 3.5625 -4 1 C-2 0 -2 0 0 0 Z " fill="#343434" transform="translate(206,109)"/>
</svg>
